<svg width="320" height="200" xmlns="http://www.w3.org/2000/svg" xmlns:xlink="http://www.w3.org/1999/xlink">
  <title>Git Resume Card Graphic</title>
    <defs>
        <linearGradient x1="102.811%" y1="93.361%" x2="28.711%" y2="15.621%" id="b">
            <stop stop-color="#8783AD" offset="0%"/>
            <stop stop-color="#544F7B" offset="100%"/>
        </linearGradient>
        <path id="a" d="M0 0h320v200H0z"/>
        <path d="M45.575 65.984v-50.08h-26.67v50.08h-.108v26.67h.107v.038h26.67v-.037h50.012v-26.67H45.575z" id="e"/>
        <filter x="-6.5%" y="-11.7%" width="118.2%" height="118.2%" filterUnits="objectBoundingBox" id="d">
            <feOffset dx="2" dy="-2" in="SourceAlpha" result="shadowOffsetOuter1"/>
            <feGaussianBlur stdDeviation="2" in="shadowOffsetOuter1" result="shadowBlurOuter1"/>
            <feColorMatrix values="0 0 0 0 0 0 0 0 0 0 0 0 0 0 0 0 0 0 0.1 0" in="shadowBlurOuter1"/>
        </filter>
        <path d="M45.575 65.984v-50.08h-26.67v50.08h-.108v26.67h.107v.038h26.67v-.037h50.012v-26.67H45.575z" id="g"/>
        <filter x="-6.5%" y="-11.7%" width="118.2%" height="118.2%" filterUnits="objectBoundingBox" id="f">
            <feOffset dx="2" dy="-2" in="SourceAlpha" result="shadowOffsetOuter1"/>
            <feGaussianBlur stdDeviation="2" in="shadowOffsetOuter1" result="shadowBlurOuter1"/>
            <feColorMatrix values="0 0 0 0 0 0 0 0 0 0 0 0 0 0 0 0 0 0 0.1 0" in="shadowBlurOuter1"/>
        </filter>
        <path d="M45.575 65.984v-50.08h-26.67v50.08h-.108v26.67h.107v.038h26.67v-.037h50.012v-26.67H45.575z" id="i"/>
        <filter x="-6.5%" y="-11.7%" width="118.2%" height="118.2%" filterUnits="objectBoundingBox" id="h">
            <feOffset dx="2" dy="-2" in="SourceAlpha" result="shadowOffsetOuter1"/>
            <feGaussianBlur stdDeviation="2" in="shadowOffsetOuter1" result="shadowBlurOuter1"/>
            <feColorMatrix values="0 0 0 0 0 0 0 0 0 0 0 0 0 0 0 0 0 0 0.1 0" in="shadowBlurOuter1"/>
        </filter>
        <path d="M45.575 65.984v-50.08h-26.67v50.08h-.108v26.67h.107v.038h26.67v-.037h50.012v-26.67H45.575z" id="k"/>
        <filter x="-6.5%" y="-11.7%" width="118.2%" height="118.2%" filterUnits="objectBoundingBox" id="j">
            <feOffset dx="2" dy="-2" in="SourceAlpha" result="shadowOffsetOuter1"/>
            <feGaussianBlur stdDeviation="2" in="shadowOffsetOuter1" result="shadowBlurOuter1"/>
            <feColorMatrix values="0 0 0 0 0 0 0 0 0 0 0 0 0 0 0 0 0 0 0.1 0" in="shadowBlurOuter1"/>
        </filter>
    </defs>
    <g fill="none" fill-rule="evenodd">
        <mask id="c" fill="#fff">
            <use xlink:href="#a"/>
        </mask>
        <use fill="url(#b)" xlink:href="#a"/>
        <g opacity=".797" mask="url(#c)">
            <path d="M124.323 108.123L88.875 72.675l18.86-18.859 54.297 54.298-.422.422.008.009-54.298 54.298-18.858-18.86 35.86-35.86z" fill="#544F7B"/>
            <g transform="rotate(45 59.772 121.984)">
                <use fill="#000" filter="url(#d)" xlink:href="#e"/>
                <use fill="#8782AE" xlink:href="#e"/>
            </g>
        </g>
        <g opacity=".797" mask="url(#c)">
            <path d="M197.677 110.123l35.448-35.448-18.86-18.859-54.297 54.298.422.422-.008.009 54.298 54.298 18.858-18.86-35.86-35.86z" fill="#544F7B"/>
            <g transform="scale(-1 1) rotate(45 -103.642 -265.704)">
                <use fill="#000" filter="url(#f)" xlink:href="#g"/>
                <use fill="#8782AE" xlink:href="#g"/>
            </g>
        </g>
        <g opacity=".797" mask="url(#c)">
            <path d="M33.677 89.877l35.448 35.448-18.86 18.859-54.297-54.298.422-.422-.008-.009L50.68 35.157l18.858 18.86-35.86 35.86z" fill="#69639A"/>
            <g transform="rotate(-135 69.48 91.036)">
                <use fill="#000" filter="url(#h)" xlink:href="#i"/>
                <use fill="#8782AE" xlink:href="#i"/>
            </g>
        </g>
        <g opacity=".797" mask="url(#c)">
            <path d="M287.323 90.877l-35.448 35.448 18.86 18.859 54.297-54.298-.422-.422.008-.009-54.298-54.298-18.858 18.86 35.86 35.86z" fill="#69639A"/>
            <g transform="scale(1 -1) rotate(45 381.486 219.243)">
                <use fill="#000" filter="url(#j)" xlink:href="#k"/>
                <use fill="#8782AE" xlink:href="#k"/>
            </g>
        </g>
        <g mask="url(#c)">
            <path fill="#FFF" style="mix-blend-mode:overlay" opacity=".435" d="M109.795 102L160 51.795 210.205 102 160 152.205z"/>
            <path d="M160.005 48l-51.852 52 51.852 52 51.852-52-51.852-52zm-9.553 17.602l9.553-9.58L203.857 100l-43.852 43.977L116.154 100l30.3-30.387 7.004 7.025-3.334 3.343 7.84 7.859v25.646l-7.84 7.861 10.666 10.697 10.666-10.697-7.837-7.86V87.84l.505-.505 9.863 9.89-3.333 3.342 10.667 10.698 10.666-10.698-10.666-10.696-3.334 3.343-9.864-9.89 3.333-3.344-10.666-10.696-3.331 3.342-7.007-7.025zm7.673 14.38l2.665-2.675 2.667 2.674-2.667 2.675-2.665-2.675zm20.528 20.586l2.668-2.674 2.665 2.674-2.665 2.676-2.668-2.676zm-20.528 20.78l2.665-2.676 2.667 2.675-2.667 2.675-2.665-2.675z" fill="#FFF"/>
        </g>
    </g>
</svg>
